<svg fill="#000000" xmlns="http://www.w3.org/2000/svg" width="400" height="400" viewBox="0 0 135.467 135.467" id="hoodie">


    
    
    
    
    <path d="M67.77 165.921a1.058 1.058 0 0 0-.074.002 1.058 1.058 0 0 0-.033 0 1.058 1.058 0 0 0-.01.001c-3.163.108-6.97.047-10.337.472-3.383.427-6.51 1.298-7.88 3.836l-1.894 3.512c-.347.143-1.013.358-1.979 1.244a7.056 7.056 0 0 0-2.29 4.831c-2.27 1.012-4.567 2.066-6.465 3.004a50.152 50.152 0 0 0-2.75 1.448c-.691.399-1.19.686-1.601 1.105-3.693 2.538-6.951 7.616-9.894 14.34-2.967 6.783-5.562 15.26-7.592 24.52-4.058 18.52-5.853 40.155-3.624 57.512a1.058 1.058 0 0 0 .759.881c-.062 1.276-.242 5.07-.242 7.69a1.058 1.058 0 0 0 .684.99c3.857 1.46 10.307 1.743 14.275.595a1.058 1.058 0 0 0 .76-1.108s-.116-1.347-.162-2.871a29.742 29.742 0 0 1 .006-2.248c.033-.682.136-1.274.187-1.41a1.058 1.058 0 0 0 .08-.444 1.058 1.058 0 0 0 .924-.995c.544-10.747.564-23.186 1.506-33.915.784-8.926 2.314-16.64 4.995-21.09.124 13.266.634 31.379.513 45.635a1.058 1.058 0 0 0 .558.942c.128.068.26.133.389.2.277 3.73.41 10.45.41 10.45a1.058 1.058 0 0 0 .865 1.02s14.995 2.81 29.879 2.465c14.883.346 29.88-2.465 29.88-2.465a1.058 1.058 0 0 0 .862-1.02s.136-6.721.413-10.452c.129-.066.26-.13.386-.198a1.058 1.058 0 0 0 .559-.942c-.121-14.257.389-32.372.513-45.638 2.681 4.449 4.21 12.165 4.995 21.093.942 10.729.964 23.168 1.508 33.915a1.058 1.058 0 0 0 .937.997 1.059 1.059 0 0 0 .065.442c.05.136.154.728.187 1.41.033.682.029 1.486.006 2.248-.046 1.524-.162 2.871-.162 2.871a1.058 1.058 0 0 0 .76 1.108c3.969 1.148 10.42.865 14.277-.594a1.058 1.058 0 0 0 .684-.99c0-2.621-.18-6.415-.242-7.69a1.058 1.058 0 0 0 .76-.882c2.229-17.357.43-38.992-3.628-57.512-2.029-9.26-4.624-17.737-7.591-24.52-2.942-6.724-6.2-11.801-9.893-14.339-.412-.42-.91-.709-1.602-1.108a50.234 50.234 0 0 0-2.751-1.447c-1.898-.938-4.194-1.99-6.462-3.002a7.058 7.058 0 0 0-2.292-4.832c-.965-.884-1.626-1.099-1.975-1.243l-1.897-3.513c-1.37-2.538-4.498-3.41-7.88-3.836-3.357-.424-7.148-.364-10.304-.47a1.059 1.059 0 0 0-.075-.005zm-.027 2.118c3.244.111 7.002.062 10.143.459 3.156.398 5.5 1.291 6.281 2.74l2.004 3.713a1.058 1.058 0 0 0 .02.032c-1.887 2.986-4.579 3.314-4.579 3.314a.53.53 0 1 0 .139 1.048s3.179-.461 5.306-3.76c.324.156.854.449 1.415.963.661.607 1.165 1.558 1.398 2.777-1.348-.1-2.635.081-3.72.58-1.39.64-3.277 1.58-6.184 2.377l-.017-.08a1.87 1.87 0 0 0 .985-1.64c0-1.023-.84-1.863-1.863-1.863-1.023 0-1.863.84-1.863 1.863 0 .97.756 1.774 1.706 1.855l.026.129c-1.836.443-4.035.822-6.722 1.045 3.894-2.507 6.477-5.128 7.861-7.386.907-1.481 1.375-2.807 1.137-4.055-.12-.625-.486-1.236-1.041-1.594-.556-.358-1.221-.463-1.908-.408a1.058 1.058 0 1 0 .166 2.11c.365-.03.537.04.593.077.057.037.077.042.11.211.064.34-.107 1.322-.861 2.553-.24.392-.54.812-.886 1.249-1.74-.101-5.98-.325-9.605-.327a.53.53 0 0 0-.05 0 .53.53 0 0 0-.06 0c-3.626.002-7.861.226-9.598.327a12.785 12.785 0 0 1-.885-1.249c-.754-1.23-.927-2.213-.862-2.553.033-.17.053-.174.11-.21.056-.037.228-.108.593-.079a1.058 1.058 0 1 0 .168-2.109c-.686-.054-1.353.05-1.908.408-.556.358-.922.97-1.04 1.594-.239 1.248.226 2.574 1.134 4.055 1.383 2.258 3.968 4.88 7.863 7.386-2.687-.223-4.885-.602-6.722-1.045l.026-.129a1.871 1.871 0 0 0 1.706-1.855c0-1.023-.84-1.863-1.864-1.863-1.023 0-1.863.84-1.863 1.863 0 .706.4 1.325.985 1.64l-.016.08c-2.909-.797-4.796-1.737-6.185-2.376-1.086-.5-2.372-.68-3.72-.58.234-1.22.738-2.171 1.4-2.778a5.84 5.84 0 0 1 1.413-.962c2.128 3.297 5.305 3.759 5.305 3.759a.53.53 0 1 0 .14-1.049s-2.691-.327-4.578-3.312a1.058 1.058 0 0 0 .018-.034l2.004-3.713c.782-1.448 3.127-2.341 6.283-2.74 3.148-.397 6.914-.346 10.162-.458zm-.01 9.039c3.14 0 6.734.17 8.784.282-1.86 2.01-4.754 4.298-8.783 6.389-4.03-2.091-6.925-4.379-8.786-6.389 2.04-.11 5.611-.28 8.742-.282a.53.53 0 0 0 .044 0zm-11.338 2.68c.451 0 .805.353.805.804a.793.793 0 0 1-.408.7c.041-.2.078-.388.121-.59a.53.53 0 0 0-.52-.647.53.53 0 0 0-.515.428l-.123.596a.803.803 0 0 1-.164-.487c0-.45.353-.804.804-.804zm22.676 0c.451 0 .805.353.805.804a.802.802 0 0 1-.164.487l-.123-.596a.53.53 0 0 0-.532-.426.53.53 0 0 0-.503.644c.042.203.08.392.122.59a.793.793 0 0 1-.411-.699c0-.45.355-.804.806-.804zm10.251 1.483c.454-.001.924.078 1.427.253 2.44 1.082 4.953 2.231 6.967 3.226 1.042.515 1.952.99 2.635 1.383.66.38 1.123.742 1.163.777a1.058 1.058 0 0 0 .092.09 1.058 1.058 0 0 0 .202.153c3.057 2.104 6.291 6.895 9.156 13.443 2.89 6.604 5.457 14.968 7.463 24.123 3.95 18.03 5.68 39.1 3.65 55.965-3.349.394-9.656 1.045-13.152 1.017-.493-10.44-.55-22.414-1.475-32.943-.947-10.78-2.666-20.024-7.292-24.6a1.058 1.058 0 0 0-.655-.404 1.058 1.058 0 0 0-1.248 1.227c-.065 13.158-.638 32.532-.531 47.79-7.486 3.77-18.124 3.913-29.793 3.86a1.058 1.058 0 0 0-.2.011 1.058 1.058 0 0 0-.197-.01c-11.67.052-22.307-.091-29.793-3.86.107-15.324-.47-34.807-.531-47.967a1.058 1.058 0 0 0-1.08-1.068 1.058 1.058 0 0 0-.83.43c-4.62 4.577-6.337 13.816-7.283 24.59-.925 10.53-.984 22.504-1.477 32.944-3.497.028-9.804-.623-13.152-1.017-2.03-16.866-.299-37.935 3.652-55.965 2.006-9.155 4.574-17.52 7.463-24.123 2.89-6.604 6.151-11.424 9.232-13.5a1.058 1.058 0 0 0 .003-.002 1.059 1.059 0 0 0 .008-.005 1.058 1.058 0 0 0 .195-.171 9.96 9.96 0 0 1 1.173-.785c.682-.393 1.59-.866 2.631-1.38 2.019-.998 4.54-2.15 6.986-3.234 1.355-.469 2.472-.224 3.7.34 1.332.614 3.376 1.697 6.652 2.607-1.569 8.404-1.686 13.757.848 19.24a.53.53 0 1 0 .96-.446c-2.41-5.218-2.323-10.269-.783-18.525 2.9.713 6.666 1.264 11.617 1.295a1.058 1.058 0 0 0 .007 0 1.058 1.058 0 0 0 .007 0c4.953-.03 8.72-.583 11.62-1.295 1.54 8.256 1.627 13.307-.784 18.525a.53.53 0 1 0 .96.446c2.533-5.483 2.417-10.836.849-19.24 3.275-.91 5.318-1.993 6.65-2.606.778-.358 1.51-.588 2.288-.59zm-37.428 62.563a.53.53 0 0 0-.53.516c-.12 4.85-1.494 7.801-2.81 9.55-1.316 1.75-2.526 2.274-2.526 2.274a.53.53 0 0 0-.312.52l.982 14.456a.53.53 0 0 0 .448.487s12.012 1.88 20.587 1.612c8.574.267 20.589-1.612 20.589-1.612a.53.53 0 0 0 .444-.487l.985-14.457a.53.53 0 0 0-.314-.519s-1.21-.524-2.526-2.273c-1.315-1.75-2.69-4.702-2.81-9.551a.53.53 0 0 0-.53-.516H67.734Zm.48 1.059H83.09c.214 4.718 1.58 7.791 2.974 9.644 1.188 1.58 2.208 2.18 2.608 2.395l-.932 13.712c-.674.104-11.85 1.802-19.992 1.546a.53.53 0 0 0-.008 0 .53.53 0 0 0-.025 0c-8.14.256-19.313-1.442-19.99-1.546l-.932-13.712c.4-.217 1.419-.817 2.605-2.395 1.394-1.853 2.76-4.926 2.975-9.644zM38.766 275.6c7.916 3.203 18.038 3.164 28.778 3.115a1.058 1.058 0 0 0 .19-.011 1.058 1.058 0 0 0 .187.011c10.74.049 20.862.088 28.778-3.115-.205 3.406-.286 7.63-.304 8.508-1.239.225-14.65 2.628-28.562 2.312a1.058 1.058 0 0 0-.076-.002 1.058 1.058 0 0 0-.125.002c-13.911.316-27.321-2.087-28.56-2.312-.019-.877-.101-5.102-.306-8.508zm82.483 7.289c.055 1.305.17 4.13.207 6.557-3.061.95-8.217 1.222-11.41.554.039-.527.08-.938.113-2.011.025-.797.032-1.645-.006-2.416-.03-.641-.073-1.204-.219-1.732 3.478-.086 8.158-.586 11.315-.952zm-107.031 0c3.158.367 7.837.866 11.315.952-.146.528-.188 1.09-.22 1.732a31.484 31.484 0 0 0-.007 2.416c.032 1.073.076 1.484.115 2.011-3.193.668-8.349.396-11.41-.554.037-2.426.152-5.25.207-6.557z" color="#000" font-family="sans-serif" font-weight="400" overflow="visible" transform="translate(0 -161.533)" style="line-height:normal;font-variant-ligatures:normal;font-variant-position:normal;font-variant-caps:normal;font-variant-numeric:normal;font-variant-alternates:normal;font-feature-settings:normal;text-indent:0;text-align:start;text-decoration-line:none;text-decoration-style:solid;text-decoration-color:#000;text-transform:none;text-orientation:mixed;shape-padding:0;isolation:auto;mix-blend-mode:normal">



</path></svg>